PathFileType	4	(X/Y/Z)	Walk7.trc
DataRate	CameraRate	NumFrames	NumMarkers	Units	OrigDataRate	OrigDataStartFrame	OrigNumFrames
200.000000	200.000000	4	61	mm	200.000000	532	852
Frame#	Times		LowerBodyModelVer		LFHD		RFHD		RACR1		RUA1		RCAR		LElbow		RFA1		RASI		LACR1		LLFC		RWRU		LUA1		LTH3		LTB1		LMT1		RTH2		LMT5		LTB3		LTB4		LToe		LTB2		LTH2		LTH4		CLAV		RLFC		STRN		LLMAL		RBHD		LTH1		RTH3		LFA1		RBack		C7		LWRU		LPSI		RMT5		RMT1		LBHD		LCAR		RTH4		RCAL		RTH1		RTB2		RToe		RLMAL		LASI		RPSI		SACR		RTB3		LWRR		RTB1		RTB4		RMMAL		LMMAL		RElbowM		RElbow		T10		RWRR		LCAL		LElbowM
			X1	Y1	Z1	X2	Y2	Z2	X3	Y3	Z3	X4	Y4	Z4	X5	Y5	Z5	X6	Y6	Z6	X7	Y7	Z7	X8	Y8	Z8	X9	Y9	Z9	X10	Y10	Z10	X11	Y11	Z11	X12	Y12	Z12	X13	Y13	Z13	X14	Y14	Z14	X15	Y15	Z15	X16	Y16	Z16	X17	Y17	Z17	X18	Y18	Z18	X19	Y19	Z19	X20	Y20	Z20	X21	Y21	Z21	X22	Y22	Z22	X23	Y23	Z23	X24	Y24	Z24	X25	Y25	Z25	X26	Y26	Z26	X27	Y27	Z27	X28	Y28	Z28	X29	Y29	Z29	X30	Y30	Z30	X31	Y31	Z31	X32	Y32	Z32	X33	Y33	Z33	X34	Y34	Z34	X35	Y35	Z35	X36	Y36	Z36	X37	Y37	Z37	X38	Y38	Z38	X39	Y39	Z39	X40	Y40	Z40	X41	Y41	Z41	X42	Y42	Z42	X43	Y43	Z43	X44	Y44	Z44	X45	Y45	Z45	X46	Y46	Z46	X47	Y47	Z47	X48	Y48	Z48	X49	Y49	Z49	X50	Y50	Z50	X51	Y51	Z51	X52	Y52	Z52	X53	Y53	Z53	X54	Y54	Z54	X55	Y55	Z55	X56	Y56	Z56	X57	Y57	Z57	X58	Y58	Z58	X59	Y59	Z59	X60	Y60	Z60	X61	Y61	Z61

532	2.66	9	2014	4	-397.48	1554.3	-22.226	-390.53	1550.3	75.736	-514.52	1351.4	198.32	-523.65	1206.5	287.12	-433.46	768.32	347.73	-655.88	1080.4	-267.75	-473.73	924.63	335.95	-463.07	932.32	187.29	-528.7	1351.2	-160.4	-427.38	484.91	-165.13	-475.86	818.95	367.81	-573.76	1211.6	-238.73	-441.37	551.02	-187.34	-347.04	350.21	-70.614	-197.06	81.456	-77.338	-529.41	602.43	176.76	-218.18	57.322	-157.06	-317.47	182.13	-85.739	-336.11	265.67	-79.121	-163.2	96.335	-82.413	-345.68	269.81	-140.2	-420.97	654.88	-192.83	-471.38	629.57	-215.67	-450.1	1319.2	19.929	-627.75	441.08	162.66	-390.59	1198.8	28.204	-340.37	75.857	-144.24	-560.68	1551.4	96.161	-498.37	706.43	-240.19	-606.37	532.08	177.54	-631.47	951.78	-310.46	-659.99	1292.5	132.56	-609.11	1398.4	38.113	-683.51	843.97	-340.44	-695.55	971.63	-96.626	-662.3	26.498	142.13	-654.23	34.759	50.175	-551.26	1543.6	-39.434	-656.42	790.94	-349.87	-588.6	609.02	177.57	-839.7	37.313	98.847	-551.98	690.34	213.62	-667.6	254.8	143.48	-606.67	30.165	56.823	-779.35	70.45	138.88	-424.16	936.84	-146.19	-711.12	969.83	36.767	-703.33	970.73	-29.929	-696.99	169.1	85.45	-624.89	828.87	-296.52	-615.3	320.02	78.854	-661.94	246.69	82.797	-764.56	76.983	52.375	-323.72	85.57	-61.733	-603.36	1025.6	259.38	-551.33	1045.4	334.05	-676.3	1071.3	1.4005	-445.75	822.53	299.55	-377.44	22.598	-95.793	-651.47	1039.2	-167.14
533	2.665	9	2014	4	-392.85	1553.7	-23.764	-385.99	1549.7	74.195	-510.3	1351.1	196.78	-519.52	1206.4	285.88	-429.4	768.18	346.85	-651.4	1079.3	-268.8	-469.61	924.45	334.85	-458.15	931.76	186.41	-523.92	1350.1	-162.02	-420.63	484.55	-164.55	-471.8	818.79	366.86	-569.02	1210.3	-239.99	-433.3	551.15	-186.35	-342.16	348.93	-69.953	-194.61	78.519	-75.329	-525.29	601.82	176.42	-215.59	54.896	-155.26	-314.03	180.63	-84.485	-332	264.32	-78.189	-160.43	92.797	-80.062	-341.49	268.36	-139.31	-414.25	655.26	-191.98	-464.15	629.25	-215.17	-445.44	1318.6	18.455	-624.34	440.77	162.48	-385.83	1198.2	27.005	-337.68	74.708	-142.96	-556.17	1550.8	94.474	-492	705.61	-240.16	-602.51	531.68	177.26	-627.66	950.52	-311.39	-655.58	1291.9	130.82	-604.66	1397.7	36.278	-680.25	842.92	-341.09	-690.31	970.75	-97.71	-662.31	26.474	142.14	-654.11	34.836	50.306	-546.64	1543.1	-41.123	-653.44	789.76	-350.52	-584.24	608.43	175.87	-839.53	38.586	98.877	-547.52	689.81	213.15	-665.7	254.81	143.42	-606.61	30.143	56.891	-778.99	71.259	138.99	-418.78	935.85	-147.03	-706.06	969.11	35.668	-698.19	969.93	-31.021	-695.78	169.21	85.562	-621.59	827.6	-297.31	-612.88	319.56	78.715	-660.15	246.46	82.878	-764.08	77.775	52.489	-321.24	84.059	-60.334	-599.3	1025.4	258.32	-547.11	1045.2	332.9	-671.36	1070.5	0.23777	-441.65	822.32	298.59	-375.61	22.347	-94.878	-646.89	1038.1	-168.12
534	2.67	9	2014	4	-388.24	1553.1	-25.331	-381.47	1549.1	72.624	-506.08	1350.9	195.21	-515.45	1206.3	284.61	-425.44	768.05	345.94	-646.87	1078.1	-269.89	-465.57	924.29	333.74	-453.15	931.18	185.53	-519.12	1349	-163.69	-414.02	484.21	-163.98	-467.85	818.65	365.87	-564.25	1209.1	-241.29	-425.16	551.33	-185.24	-337.41	347.67	-69.278	-192.41	75.406	-73.382	-521.13	601.24	176.07	-213.27	52.391	-153.56	-310.78	179.13	-83.278	-328.04	262.97	-77.279	-157.9	89.01	-77.748	-337.42	266.94	-138.44	-407.35	655.66	-191.06	-456.74	628.99	-214.6	-440.76	1318	16.937	-620.82	440.48	162.3	-381.05	1197.6	25.744	-335.23	73.614	-141.77	-551.67	1550.3	92.746	-485.38	704.9	-240.05	-598.57	531.29	176.97	-623.79	949.24	-312.36	-651.18	1291.3	129.04	-600.22	1397	34.388	-676.9	841.84	-341.77	-685.06	969.88	-98.807	-662.33	26.445	142.16	-653.98	34.915	50.447	-542.02	1542.6	-42.854	-650.37	788.55	-351.2	-579.73	607.96	174.33	-839.32	39.981	98.925	-543.01	689.3	212.67	-663.73	254.86	143.38	-606.56	30.123	56.96	-778.58	72.148	139.13	-413.39	934.87	-147.92	-700.97	968.41	34.573	-693.02	969.14	-32.117	-694.51	169.36	85.698	-618.22	826.31	-298.11	-610.37	319.12	78.596	-658.28	246.26	82.988	-763.55	78.64	52.626	-319.02	82.541	-59.014	-595.28	1025.3	257.21	-542.98	1045.1	331.71	-666.42	1069.7	-0.92316	-437.65	822.12	297.61	-374.09	22.221	-94.088	-642.25	1037.1	-169.14
535	2.675	9	2014	4	-383.63	1552.6	-26.925	-376.95	1548.6	71.026	-501.85	1350.7	193.61	-511.43	1206.3	283.3	-421.59	767.94	345	-642.29	1077	-271.01	-461.63	924.14	332.6	-448.09	930.6	184.64	-514.31	1347.9	-165.4	-407.56	483.91	-163.42	-464.01	818.52	364.84	-559.44	1207.8	-242.62	-417.02	551.54	-184.04	-332.78	346.43	-68.583	-190.44	72.166	-71.514	-516.91	600.71	175.73	-211.19	49.852	-151.99	-307.68	177.67	-82.129	-324.2	261.66	-76.393	-155.58	85.03	-75.494	-333.42	265.59	-137.6	-400.28	656.06	-190.08	-449.18	628.81	-213.97	-436.08	1317.5	15.376	-617.2	440.2	162.13	-376.26	1197.1	24.427	-332.98	72.602	-140.68	-547.19	1549.8	90.979	-478.5	704.3	-239.88	-594.55	530.91	176.68	-619.85	947.93	-313.35	-646.77	1290.8	127.22	-595.76	1396.4	32.45	-673.47	840.75	-342.46	-679.8	969.04	-99.918	-662.35	26.409	142.18	-653.84	34.998	50.595	-537.4	1542.1	-44.623	-647.21	787.34	-351.89	-575.08	607.6	172.98	-839.08	41.513	98.99	-538.44	688.8	212.19	-661.68	254.97	143.38	-606.5	30.104	57.03	-778.12	73.126	139.29	-407.96	933.91	-148.87	-695.85	967.71	33.483	-687.83	968.38	-33.218	-693.16	169.58	85.858	-614.76	825.01	-298.93	-607.76	318.71	78.5	-656.33	246.09	83.126	-762.96	79.587	52.788	-317	81.051	-57.786	-591.29	1025.2	256.02	-538.93	1045	330.48	-661.47	1069	-2.078	-433.73	821.94	296.6	-372.83	22.23	-93.429	-637.57	1036.1	-170.2
